<mxfile host="app.diagrams.net" modified="2023-12-07T04:05:59.757Z" agent="Mozilla/5.0 (X11; Linux x86_64) AppleWebKit/537.36 (KHTML, like Gecko) Chrome/118.0.0.0 Safari/537.36" etag="KAgwRZlqwcYu2gPwDTW9" version="22.1.7" type="device">
  <diagram name="Page-1" id="AkYISrHaNfTUQQ3MHmil">
    <mxGraphModel dx="966" dy="693" grid="1" gridSize="10" guides="1" tooltips="1" connect="1" arrows="1" fold="1" page="1" pageScale="1" pageWidth="850" pageHeight="1100" math="0" shadow="0">
      <root>
        <mxCell id="0" />
        <mxCell id="1" parent="0" />
        <mxCell id="Dldf0S_5VanwXCT5Viiu-5" value="&lt;p style=&quot;margin:0px;margin-top:4px;text-align:center;&quot;&gt;&lt;i&gt;&amp;lt;&amp;lt;Interface&amp;gt;&amp;gt;&lt;/i&gt;&lt;br&gt;&lt;b&gt;EventManager&lt;/b&gt;&lt;/p&gt;&lt;hr size=&quot;1&quot;&gt;&lt;p style=&quot;margin:0px;margin-left:4px;&quot;&gt;+ subscribers: List[Events]&lt;br&gt;&lt;/p&gt;&lt;p style=&quot;margin:0px;margin-left:4px;&quot;&gt;+ first_event: Event&lt;br&gt;+ last_event: Event&lt;/p&gt;&lt;hr size=&quot;1&quot;&gt;&lt;p style=&quot;margin:0px;margin-left:4px;&quot;&gt;+ get_first_event(): Event&lt;br&gt;+ subscribe(Subscriber):&amp;nbsp;&lt;br&gt;+ unsubscribe(Subscriber):&amp;nbsp;&lt;br&gt;+ notify():&amp;nbsp;&lt;br&gt;&lt;/p&gt;&lt;p style=&quot;margin:0px;margin-left:4px;&quot;&gt;+ main():&lt;/p&gt;" style="verticalAlign=top;align=left;overflow=fill;fontSize=12;fontFamily=Helvetica;html=1;whiteSpace=wrap;" parent="1" vertex="1">
          <mxGeometry x="479.56" y="48" width="190" height="179" as="geometry" />
        </mxCell>
        <mxCell id="Dldf0S_5VanwXCT5Viiu-6" value="TimeEventManager" style="swimlane;fontStyle=1;align=center;verticalAlign=top;childLayout=stackLayout;horizontal=1;startSize=26;horizontalStack=0;resizeParent=1;resizeParentMax=0;resizeLast=0;collapsible=1;marginBottom=0;whiteSpace=wrap;html=1;" parent="1" vertex="1">
          <mxGeometry x="649.56" y="307" width="200" height="190" as="geometry" />
        </mxCell>
        <mxCell id="Dldf0S_5VanwXCT5Viiu-7" value="&lt;p style=&quot;border-color: var(--border-color); margin: 0px 0px 0px 4px;&quot;&gt;+ subscribers: List[Events]&lt;br style=&quot;border-color: var(--border-color);&quot;&gt;&lt;/p&gt;&lt;p style=&quot;border-color: var(--border-color); margin: 0px 0px 0px 4px;&quot;&gt;+ first_event: Event&lt;br style=&quot;border-color: var(--border-color);&quot;&gt;+ last_event: Event&lt;/p&gt;&lt;p style=&quot;border-color: var(--border-color); margin: 0px 0px 0px 4px;&quot;&gt;+ rtc: RTC&lt;/p&gt;" style="text;strokeColor=none;fillColor=none;align=left;verticalAlign=top;spacingLeft=4;spacingRight=4;overflow=hidden;rotatable=0;points=[[0,0.5],[1,0.5]];portConstraint=eastwest;whiteSpace=wrap;html=1;" parent="Dldf0S_5VanwXCT5Viiu-6" vertex="1">
          <mxGeometry y="26" width="200" height="64" as="geometry" />
        </mxCell>
        <mxCell id="Dldf0S_5VanwXCT5Viiu-8" value="" style="line;strokeWidth=1;fillColor=none;align=left;verticalAlign=middle;spacingTop=-1;spacingLeft=3;spacingRight=3;rotatable=0;labelPosition=right;points=[];portConstraint=eastwest;strokeColor=inherit;" parent="Dldf0S_5VanwXCT5Viiu-6" vertex="1">
          <mxGeometry y="90" width="200" height="8" as="geometry" />
        </mxCell>
        <mxCell id="Dldf0S_5VanwXCT5Viiu-9" value="&lt;p style=&quot;border-color: var(--border-color); margin: 0px 0px 0px 4px;&quot;&gt;+ get_first_event(): Event&lt;br style=&quot;border-color: var(--border-color);&quot;&gt;+ subscribe(Subscriber):&amp;nbsp;&lt;br style=&quot;border-color: var(--border-color);&quot;&gt;+ unsubscribe(Subscriber):&amp;nbsp;&lt;br style=&quot;border-color: var(--border-color);&quot;&gt;+ notify():&amp;nbsp;&lt;br style=&quot;border-color: var(--border-color);&quot;&gt;&lt;/p&gt;&lt;p style=&quot;border-color: var(--border-color); margin: 0px 0px 0px 4px;&quot;&gt;+ main():&lt;/p&gt;" style="text;strokeColor=none;fillColor=none;align=left;verticalAlign=top;spacingLeft=4;spacingRight=4;overflow=hidden;rotatable=0;points=[[0,0.5],[1,0.5]];portConstraint=eastwest;whiteSpace=wrap;html=1;" parent="Dldf0S_5VanwXCT5Viiu-6" vertex="1">
          <mxGeometry y="98" width="200" height="92" as="geometry" />
        </mxCell>
        <mxCell id="Dldf0S_5VanwXCT5Viiu-11" value="" style="endArrow=block;dashed=1;endFill=0;endSize=12;html=1;rounded=0;exitX=0.5;exitY=0;exitDx=0;exitDy=0;entryX=0.5;entryY=1;entryDx=0;entryDy=0;" parent="1" source="Dldf0S_5VanwXCT5Viiu-6" target="Dldf0S_5VanwXCT5Viiu-5" edge="1">
          <mxGeometry width="160" relative="1" as="geometry">
            <mxPoint x="409.56" y="447" as="sourcePoint" />
            <mxPoint x="569.56" y="447" as="targetPoint" />
          </mxGeometry>
        </mxCell>
        <mxCell id="Dldf0S_5VanwXCT5Viiu-16" value="Event" style="swimlane;fontStyle=1;align=center;verticalAlign=top;childLayout=stackLayout;horizontal=1;startSize=26;horizontalStack=0;resizeParent=1;resizeParentMax=0;resizeLast=0;collapsible=1;marginBottom=0;whiteSpace=wrap;html=1;" parent="1" vertex="1">
          <mxGeometry x="30" y="190" width="140" height="138" as="geometry" />
        </mxCell>
        <mxCell id="Dldf0S_5VanwXCT5Viiu-17" value="+ type: int" style="text;strokeColor=none;fillColor=none;align=left;verticalAlign=top;spacingLeft=4;spacingRight=4;overflow=hidden;rotatable=0;points=[[0,0.5],[1,0.5]];portConstraint=eastwest;whiteSpace=wrap;html=1;" parent="Dldf0S_5VanwXCT5Viiu-16" vertex="1">
          <mxGeometry y="26" width="140" height="26" as="geometry" />
        </mxCell>
        <mxCell id="Dldf0S_5VanwXCT5Viiu-20" value="+ status_code: int" style="text;strokeColor=none;fillColor=none;align=left;verticalAlign=top;spacingLeft=4;spacingRight=4;overflow=hidden;rotatable=0;points=[[0,0.5],[1,0.5]];portConstraint=eastwest;whiteSpace=wrap;html=1;" parent="Dldf0S_5VanwXCT5Viiu-16" vertex="1">
          <mxGeometry y="52" width="140" height="26" as="geometry" />
        </mxCell>
        <mxCell id="Dldf0S_5VanwXCT5Viiu-22" value="+ timestamp: str" style="text;strokeColor=none;fillColor=none;align=left;verticalAlign=top;spacingLeft=4;spacingRight=4;overflow=hidden;rotatable=0;points=[[0,0.5],[1,0.5]];portConstraint=eastwest;whiteSpace=wrap;html=1;" parent="Dldf0S_5VanwXCT5Viiu-16" vertex="1">
          <mxGeometry y="78" width="140" height="26" as="geometry" />
        </mxCell>
        <mxCell id="Dldf0S_5VanwXCT5Viiu-21" value="+ data: dict" style="text;strokeColor=none;fillColor=none;align=left;verticalAlign=top;spacingLeft=4;spacingRight=4;overflow=hidden;rotatable=0;points=[[0,0.5],[1,0.5]];portConstraint=eastwest;whiteSpace=wrap;html=1;" parent="Dldf0S_5VanwXCT5Viiu-16" vertex="1">
          <mxGeometry y="104" width="140" height="26" as="geometry" />
        </mxCell>
        <mxCell id="Dldf0S_5VanwXCT5Viiu-18" value="" style="line;strokeWidth=1;fillColor=none;align=left;verticalAlign=middle;spacingTop=-1;spacingLeft=3;spacingRight=3;rotatable=0;labelPosition=right;points=[];portConstraint=eastwest;strokeColor=inherit;" parent="Dldf0S_5VanwXCT5Viiu-16" vertex="1">
          <mxGeometry y="130" width="140" height="8" as="geometry" />
        </mxCell>
        <mxCell id="Dldf0S_5VanwXCT5Viiu-23" value="EventList" style="swimlane;fontStyle=1;align=center;verticalAlign=top;childLayout=stackLayout;horizontal=1;startSize=26;horizontalStack=0;resizeParent=1;resizeParentMax=0;resizeLast=0;collapsible=1;marginBottom=0;whiteSpace=wrap;html=1;" parent="1" vertex="1">
          <mxGeometry x="30" y="60" width="140" height="112" as="geometry" />
        </mxCell>
        <mxCell id="Dldf0S_5VanwXCT5Viiu-24" value="+ queue: List[Event]" style="text;strokeColor=none;fillColor=none;align=left;verticalAlign=top;spacingLeft=4;spacingRight=4;overflow=hidden;rotatable=0;points=[[0,0.5],[1,0.5]];portConstraint=eastwest;whiteSpace=wrap;html=1;" parent="Dldf0S_5VanwXCT5Viiu-23" vertex="1">
          <mxGeometry y="26" width="140" height="26" as="geometry" />
        </mxCell>
        <mxCell id="Dldf0S_5VanwXCT5Viiu-28" value="" style="line;strokeWidth=1;fillColor=none;align=left;verticalAlign=middle;spacingTop=-1;spacingLeft=3;spacingRight=3;rotatable=0;labelPosition=right;points=[];portConstraint=eastwest;strokeColor=inherit;" parent="Dldf0S_5VanwXCT5Viiu-23" vertex="1">
          <mxGeometry y="52" width="140" height="8" as="geometry" />
        </mxCell>
        <mxCell id="Dldf0S_5VanwXCT5Viiu-29" value="+ append(Event):&amp;nbsp;" style="text;strokeColor=none;fillColor=none;align=left;verticalAlign=top;spacingLeft=4;spacingRight=4;overflow=hidden;rotatable=0;points=[[0,0.5],[1,0.5]];portConstraint=eastwest;whiteSpace=wrap;html=1;" parent="Dldf0S_5VanwXCT5Viiu-23" vertex="1">
          <mxGeometry y="60" width="140" height="26" as="geometry" />
        </mxCell>
        <mxCell id="Dldf0S_5VanwXCT5Viiu-30" value="+ extend(EventList):&amp;nbsp;" style="text;strokeColor=none;fillColor=none;align=left;verticalAlign=top;spacingLeft=4;spacingRight=4;overflow=hidden;rotatable=0;points=[[0,0.5],[1,0.5]];portConstraint=eastwest;whiteSpace=wrap;html=1;" parent="Dldf0S_5VanwXCT5Viiu-23" vertex="1">
          <mxGeometry y="86" width="140" height="26" as="geometry" />
        </mxCell>
        <mxCell id="Dldf0S_5VanwXCT5Viiu-35" value="&lt;p style=&quot;margin:0px;margin-top:4px;text-align:center;&quot;&gt;&lt;i&gt;&amp;lt;&amp;lt;Interface&amp;gt;&amp;gt;&lt;/i&gt;&lt;br&gt;&lt;b&gt;Subscriber&lt;/b&gt;&lt;/p&gt;&lt;hr size=&quot;1&quot;&gt;&lt;p style=&quot;margin:0px;margin-left:4px;&quot;&gt;&lt;br&gt;&lt;/p&gt;&lt;hr size=&quot;1&quot;&gt;&lt;p style=&quot;margin:0px;margin-left:4px;&quot;&gt;+ update(Event):&lt;br&gt;&lt;/p&gt;" style="verticalAlign=top;align=left;overflow=fill;fontSize=12;fontFamily=Helvetica;html=1;whiteSpace=wrap;" parent="1" vertex="1">
          <mxGeometry x="249.56" y="830" width="190" height="100" as="geometry" />
        </mxCell>
        <mxCell id="Dldf0S_5VanwXCT5Viiu-36" value="ConnectionEventManager" style="swimlane;fontStyle=1;align=center;verticalAlign=top;childLayout=stackLayout;horizontal=1;startSize=26;horizontalStack=0;resizeParent=1;resizeParentMax=0;resizeLast=0;collapsible=1;marginBottom=0;whiteSpace=wrap;html=1;" parent="1" vertex="1">
          <mxGeometry x="289.56" y="307" width="200" height="190" as="geometry" />
        </mxCell>
        <mxCell id="Dldf0S_5VanwXCT5Viiu-37" value="&lt;p style=&quot;border-color: var(--border-color); margin: 0px 0px 0px 4px;&quot;&gt;+ subscribers: List[Events]&lt;br style=&quot;border-color: var(--border-color);&quot;&gt;&lt;/p&gt;&lt;p style=&quot;border-color: var(--border-color); margin: 0px 0px 0px 4px;&quot;&gt;+ first_connection: Event&lt;br style=&quot;border-color: var(--border-color);&quot;&gt;+ last_connection: Event&lt;/p&gt;&lt;p style=&quot;border-color: var(--border-color); margin: 0px 0px 0px 4px;&quot;&gt;+ connection:&lt;/p&gt;" style="text;strokeColor=none;fillColor=none;align=left;verticalAlign=top;spacingLeft=4;spacingRight=4;overflow=hidden;rotatable=0;points=[[0,0.5],[1,0.5]];portConstraint=eastwest;whiteSpace=wrap;html=1;" parent="Dldf0S_5VanwXCT5Viiu-36" vertex="1">
          <mxGeometry y="26" width="200" height="64" as="geometry" />
        </mxCell>
        <mxCell id="Dldf0S_5VanwXCT5Viiu-38" value="" style="line;strokeWidth=1;fillColor=none;align=left;verticalAlign=middle;spacingTop=-1;spacingLeft=3;spacingRight=3;rotatable=0;labelPosition=right;points=[];portConstraint=eastwest;strokeColor=inherit;" parent="Dldf0S_5VanwXCT5Viiu-36" vertex="1">
          <mxGeometry y="90" width="200" height="8" as="geometry" />
        </mxCell>
        <mxCell id="Dldf0S_5VanwXCT5Viiu-39" value="&lt;p style=&quot;border-color: var(--border-color); margin: 0px 0px 0px 4px;&quot;&gt;+ get_first_event(): Event&lt;br style=&quot;border-color: var(--border-color);&quot;&gt;+ subscribe(Subscriber):&amp;nbsp;&lt;br style=&quot;border-color: var(--border-color);&quot;&gt;+ unsubscribe(Subscriber):&amp;nbsp;&lt;br style=&quot;border-color: var(--border-color);&quot;&gt;+ notify():&amp;nbsp;&lt;br style=&quot;border-color: var(--border-color);&quot;&gt;&lt;/p&gt;&lt;p style=&quot;border-color: var(--border-color); margin: 0px 0px 0px 4px;&quot;&gt;+ main():&lt;/p&gt;" style="text;strokeColor=none;fillColor=none;align=left;verticalAlign=top;spacingLeft=4;spacingRight=4;overflow=hidden;rotatable=0;points=[[0,0.5],[1,0.5]];portConstraint=eastwest;whiteSpace=wrap;html=1;" parent="Dldf0S_5VanwXCT5Viiu-36" vertex="1">
          <mxGeometry y="98" width="200" height="92" as="geometry" />
        </mxCell>
        <mxCell id="Dldf0S_5VanwXCT5Viiu-41" value="" style="endArrow=block;dashed=1;endFill=0;endSize=12;html=1;rounded=0;exitX=0.5;exitY=0;exitDx=0;exitDy=0;entryX=0.5;entryY=1;entryDx=0;entryDy=0;" parent="1" source="Dldf0S_5VanwXCT5Viiu-36" target="Dldf0S_5VanwXCT5Viiu-5" edge="1">
          <mxGeometry width="160" relative="1" as="geometry">
            <mxPoint x="554.56" y="287" as="sourcePoint" />
            <mxPoint x="379.56" y="207" as="targetPoint" />
          </mxGeometry>
        </mxCell>
        <mxCell id="Dldf0S_5VanwXCT5Viiu-42" value="SensorsMicroService" style="swimlane;fontStyle=1;align=center;verticalAlign=top;childLayout=stackLayout;horizontal=1;startSize=20;horizontalStack=0;resizeParent=1;resizeParentMax=0;resizeLast=0;collapsible=1;marginBottom=0;whiteSpace=wrap;html=1;" parent="1" vertex="1">
          <mxGeometry x="454.56" y="540" width="240" height="234" as="geometry" />
        </mxCell>
        <mxCell id="Dldf0S_5VanwXCT5Viiu-43" value="+ last_time_event: type&lt;br&gt;+ first_measurement_event: EventList&lt;br&gt;+ last_measurement_event: EventList" style="text;strokeColor=none;fillColor=none;align=left;verticalAlign=top;spacingLeft=4;spacingRight=4;overflow=hidden;rotatable=0;points=[[0,0.5],[1,0.5]];portConstraint=eastwest;whiteSpace=wrap;html=1;" parent="Dldf0S_5VanwXCT5Viiu-42" vertex="1">
          <mxGeometry y="20" width="240" height="60" as="geometry" />
        </mxCell>
        <mxCell id="Dldf0S_5VanwXCT5Viiu-44" value="" style="line;strokeWidth=1;fillColor=none;align=left;verticalAlign=middle;spacingTop=-1;spacingLeft=3;spacingRight=3;rotatable=0;labelPosition=right;points=[];portConstraint=eastwest;strokeColor=inherit;" parent="Dldf0S_5VanwXCT5Viiu-42" vertex="1">
          <mxGeometry y="80" width="240" height="8" as="geometry" />
        </mxCell>
        <mxCell id="Dldf0S_5VanwXCT5Viiu-45" value="&lt;p style=&quot;border-color: var(--border-color); margin: 0px 0px 0px 4px;&quot;&gt;+ get_first_event(): Event&lt;br style=&quot;border-color: var(--border-color);&quot;&gt;+ subscribe(Subscriber):&amp;nbsp;&lt;br style=&quot;border-color: var(--border-color);&quot;&gt;+ unsubscribe(Subscriber):&amp;nbsp;&lt;br style=&quot;border-color: var(--border-color);&quot;&gt;+ notify():&amp;nbsp;&lt;br style=&quot;border-color: var(--border-color);&quot;&gt;&lt;/p&gt;&lt;p style=&quot;border-color: var(--border-color); margin: 0px 0px 0px 4px;&quot;&gt;+ main():&lt;/p&gt;" style="text;strokeColor=none;fillColor=none;align=left;verticalAlign=top;spacingLeft=4;spacingRight=4;overflow=hidden;rotatable=0;points=[[0,0.5],[1,0.5]];portConstraint=eastwest;whiteSpace=wrap;html=1;" parent="Dldf0S_5VanwXCT5Viiu-42" vertex="1">
          <mxGeometry y="88" width="240" height="86" as="geometry" />
        </mxCell>
        <mxCell id="Dldf0S_5VanwXCT5Viiu-47" value="+ update(Event):&amp;nbsp;" style="text;strokeColor=none;fillColor=none;align=left;verticalAlign=top;spacingLeft=4;spacingRight=4;overflow=hidden;rotatable=0;points=[[0,0.5],[1,0.5]];portConstraint=eastwest;whiteSpace=wrap;html=1;" parent="Dldf0S_5VanwXCT5Viiu-42" vertex="1">
          <mxGeometry y="174" width="240" height="26" as="geometry" />
        </mxCell>
        <mxCell id="Dldf0S_5VanwXCT5Viiu-48" value="+ add_sensor(Sensor):&amp;nbsp;&lt;br&gt;+ remove_sensor(Sensor):" style="text;strokeColor=none;fillColor=none;align=left;verticalAlign=top;spacingLeft=4;spacingRight=4;overflow=hidden;rotatable=0;points=[[0,0.5],[1,0.5]];portConstraint=eastwest;whiteSpace=wrap;html=1;" parent="Dldf0S_5VanwXCT5Viiu-42" vertex="1">
          <mxGeometry y="200" width="240" height="34" as="geometry" />
        </mxCell>
        <mxCell id="Dldf0S_5VanwXCT5Viiu-46" value="" style="endArrow=block;dashed=1;endFill=0;endSize=12;html=1;rounded=0;exitX=0.5;exitY=0;exitDx=0;exitDy=0;entryX=0;entryY=0.5;entryDx=0;entryDy=0;" parent="1" source="Dldf0S_5VanwXCT5Viiu-35" target="Dldf0S_5VanwXCT5Viiu-45" edge="1">
          <mxGeometry width="160" relative="1" as="geometry">
            <mxPoint x="1167.06" y="638" as="sourcePoint" />
            <mxPoint x="1272.06" y="558" as="targetPoint" />
          </mxGeometry>
        </mxCell>
        <mxCell id="Dldf0S_5VanwXCT5Viiu-49" value="1" style="endArrow=open;html=1;endSize=12;startArrow=diamondThin;startSize=14;startFill=0;align=left;verticalAlign=bottom;rounded=0;exitX=0.49;exitY=1.054;exitDx=0;exitDy=0;exitPerimeter=0;" parent="1" source="Dldf0S_5VanwXCT5Viiu-9" target="Dldf0S_5VanwXCT5Viiu-42" edge="1">
          <mxGeometry x="-0.0659" y="12" relative="1" as="geometry">
            <mxPoint x="639.56" y="648" as="sourcePoint" />
            <mxPoint x="799.56" y="648" as="targetPoint" />
            <mxPoint as="offset" />
          </mxGeometry>
        </mxCell>
        <mxCell id="Dldf0S_5VanwXCT5Viiu-52" value="" style="endArrow=block;dashed=1;endFill=0;endSize=12;html=1;rounded=0;exitX=0.5;exitY=0;exitDx=0;exitDy=0;" parent="1" source="Dldf0S_5VanwXCT5Viiu-42" edge="1" target="Dldf0S_5VanwXCT5Viiu-5">
          <mxGeometry width="160" relative="1" as="geometry">
            <mxPoint x="569.56" y="508" as="sourcePoint" />
            <mxPoint x="589.56" y="280" as="targetPoint" />
          </mxGeometry>
        </mxCell>
        <mxCell id="0JNctuInKH2-LKgJxgL8-2" value="DataManagementMicroService" style="swimlane;fontStyle=1;align=center;verticalAlign=top;childLayout=stackLayout;horizontal=1;startSize=26;horizontalStack=0;resizeParent=1;resizeParentMax=0;resizeLast=0;collapsible=1;marginBottom=0;whiteSpace=wrap;html=1;" vertex="1" parent="1">
          <mxGeometry y="580" width="280" height="104" as="geometry" />
        </mxCell>
        <mxCell id="0JNctuInKH2-LKgJxgL8-3" value="&lt;p style=&quot;border-color: var(--border-color); margin: 0px 0px 0px 4px;&quot;&gt;&lt;/p&gt;&amp;nbsp;+ last_measurement_event: EventList&lt;br&gt;&amp;nbsp;+ last_connection_event: Event&amp;nbsp;&lt;br&gt;&lt;p style=&quot;border-color: var(--border-color); margin: 0px 0px 0px 4px;&quot;&gt;&lt;br&gt;&lt;/p&gt;" style="text;strokeColor=none;fillColor=none;align=left;verticalAlign=top;spacingLeft=4;spacingRight=4;overflow=hidden;rotatable=0;points=[[0,0.5],[1,0.5]];portConstraint=eastwest;whiteSpace=wrap;html=1;" vertex="1" parent="0JNctuInKH2-LKgJxgL8-2">
          <mxGeometry y="26" width="280" height="44" as="geometry" />
        </mxCell>
        <mxCell id="0JNctuInKH2-LKgJxgL8-4" value="" style="line;strokeWidth=1;fillColor=none;align=left;verticalAlign=middle;spacingTop=-1;spacingLeft=3;spacingRight=3;rotatable=0;labelPosition=right;points=[];portConstraint=eastwest;strokeColor=inherit;" vertex="1" parent="0JNctuInKH2-LKgJxgL8-2">
          <mxGeometry y="70" width="280" height="8" as="geometry" />
        </mxCell>
        <mxCell id="0JNctuInKH2-LKgJxgL8-10" value="&amp;nbsp;+ update(Event):&amp;nbsp;" style="text;strokeColor=none;fillColor=none;align=left;verticalAlign=top;spacingLeft=4;spacingRight=4;overflow=hidden;rotatable=0;points=[[0,0.5],[1,0.5]];portConstraint=eastwest;whiteSpace=wrap;html=1;" vertex="1" parent="0JNctuInKH2-LKgJxgL8-2">
          <mxGeometry y="78" width="280" height="26" as="geometry" />
        </mxCell>
        <mxCell id="0JNctuInKH2-LKgJxgL8-7" value="" style="endArrow=block;dashed=1;endFill=0;endSize=12;html=1;rounded=0;exitX=0.5;exitY=0;exitDx=0;exitDy=0;entryX=0.994;entryY=1.088;entryDx=0;entryDy=0;entryPerimeter=0;" edge="1" parent="1" source="Dldf0S_5VanwXCT5Viiu-35" target="0JNctuInKH2-LKgJxgL8-10">
          <mxGeometry width="160" relative="1" as="geometry">
            <mxPoint x="279.56" y="660" as="sourcePoint" />
            <mxPoint x="280.8399999999999" y="708.48" as="targetPoint" />
          </mxGeometry>
        </mxCell>
        <mxCell id="0JNctuInKH2-LKgJxgL8-8" value="1" style="endArrow=open;html=1;endSize=12;startArrow=diamondThin;startSize=14;startFill=0;align=left;verticalAlign=bottom;rounded=0;exitX=0.516;exitY=1.012;exitDx=0;exitDy=0;exitPerimeter=0;entryX=1.003;entryY=1.055;entryDx=0;entryDy=0;entryPerimeter=0;" edge="1" parent="1" source="Dldf0S_5VanwXCT5Viiu-39" target="0JNctuInKH2-LKgJxgL8-3">
          <mxGeometry x="-0.7366" y="12" relative="1" as="geometry">
            <mxPoint x="120" y="560" as="sourcePoint" />
            <mxPoint x="280" y="560" as="targetPoint" />
            <mxPoint as="offset" />
          </mxGeometry>
        </mxCell>
        <mxCell id="0JNctuInKH2-LKgJxgL8-9" value="1" style="endArrow=open;html=1;endSize=12;startArrow=diamondThin;startSize=14;startFill=0;align=left;verticalAlign=bottom;rounded=0;entryX=1.006;entryY=-0.093;entryDx=0;entryDy=0;entryPerimeter=0;exitX=-0.003;exitY=0.469;exitDx=0;exitDy=0;exitPerimeter=0;" edge="1" parent="1" source="Dldf0S_5VanwXCT5Viiu-45" target="0JNctuInKH2-LKgJxgL8-10">
          <mxGeometry x="-0.7366" y="12" relative="1" as="geometry">
            <mxPoint x="401" y="510" as="sourcePoint" />
            <mxPoint x="279.7199999999998" y="668.0920000000001" as="targetPoint" />
            <mxPoint as="offset" />
          </mxGeometry>
        </mxCell>
      </root>
    </mxGraphModel>
  </diagram>
</mxfile>
